<svg width="112" height="32" viewBox="0 0 112 32" fill="none" xmlns="http://www.w3.org/2000/svg">
<g clip-path="url(#clip0_347_1214)">
<path fill-rule="evenodd" clip-rule="evenodd" d="M24.2481 11.7653C24.2481 19.0292 17.8493 19.0099 13.5935 26.3928C13.5263 18.1477 19.5232 14.0165 19.7812 13.8465L18.6697 12.1765C18.4121 12.3503 13.2015 15.8998 11.8822 22.9565C11.2279 19.0571 11.3131 14.4584 13.5296 11.1978C16.0864 7.50608 21.6553 8.00183 24.2476 8.00183V11.7653H24.2481ZM24.2481 27.0372C20.3862 27.0372 17.9203 26.7351 14.7353 28.6066C16.6019 24.0429 21.9711 20.635 23.6554 18.9551C24.5018 17.9329 24.2481 16.254 24.2481 27.0368V27.0372ZM11.0083 27.8758C11.4059 29.2459 10.6646 27.0372 5.92216 27.0372H2.14875V8.00183C4.44281 8.00183 9.25673 7.55046 11.8353 10.1222C8.46285 14.6085 9.30928 22.2861 11.0083 27.8758ZM13.1982 1.9905C17.8805 1.9905 20.399 6.00844 20.0259 6.00844C18.4301 6.08445 16.8693 6.43998 15.1576 7.33091C12.3352 9.21193 13.8756 8.69871 11.1091 7.25726C9.62077 6.51552 8.13858 6.0854 6.3681 6.00844C6.00122 6.00844 8.51777 1.9905 13.1987 1.9905H13.1982ZM22.4028 5.99805C18.8992 -2.001 7.49571 -1.9977 3.99356 5.99805C-1.12996 5.99805 0.139207 3.3871 0.139207 28.0396C0.139207 29.3762 1.41168 29.041 5.92216 29.041C10.7276 29.041 11.6294 31.9999 13.5068 31.9999V31.9971C13.5532 31.9971 13.7487 31.88 13.7544 31.88C17.062 28.5811 20.6191 29.041 25.2526 29.041C26.6846 29.041 26.2567 29.0235 26.2567 6.99994C26.2567 5.58493 24.2614 5.99805 22.4028 5.99805Z" fill="white"/>
<path fill-rule="evenodd" clip-rule="evenodd" d="M33.4471 3.13725H34.8663L36.9 7.55273L38.9431 3.13725H40.3529V9.73215H38.981V5.98663L37.2309 9.73215H36.5686L34.8279 5.98663V9.73215H33.4466V3.13725H33.4471ZM43.5691 3.13725H44.9784L47.6176 9.73215H46.1515L45.5839 8.29825H42.9632L42.3956 9.73215H40.92L43.5686 3.13725H43.5691ZM45.2056 7.15661L44.2693 4.64669L43.3329 7.15661H45.2061H45.2056ZM48.4124 3.13725H49.8501V6.00552L52.3477 3.13725H54.0599L51.2598 6.35443L54.2493 9.73215H52.537L49.8505 6.70335V9.73215H48.4129V3.13725H48.4124ZM56.2925 4.33555H54.3624V3.13725H59.6602V4.33555H57.7302V9.73262H56.2925V4.33555ZM61.5713 3.13725H62.9805L65.6197 9.73215H64.1536L63.586 8.29825H60.9653L60.3977 9.73215H58.9222L61.5708 3.13725H61.5713ZM63.2078 7.15661L62.2714 4.64669L61.335 7.15661H63.2082H63.2078ZM66.4145 3.13725H69.6591C70.2836 3.13725 70.7721 3.29117 71.1257 3.59948C71.4789 3.90779 71.6554 4.35443 71.6554 4.93942C71.6554 5.23498 71.5859 5.5041 71.4476 5.74631C71.3089 5.98852 71.1196 6.17549 70.88 6.30769C71.2081 6.42714 71.4538 6.60798 71.618 6.85018C71.7823 7.09239 71.8642 7.40826 71.8642 7.79825C71.8642 8.19438 71.7743 8.53904 71.5944 8.8313C71.4145 9.12403 71.1688 9.34735 70.8564 9.50127C70.5444 9.65519 70.1988 9.73262 69.8206 9.73262H66.415V3.13772L66.4145 3.13725ZM69.3851 5.81666C69.6374 5.81666 69.8362 5.75387 69.9811 5.62781C70.1264 5.50222 70.1988 5.30061 70.1988 5.02393C70.1988 4.72223 70.1278 4.51449 69.9858 4.40118C69.8438 4.28786 69.6279 4.2312 69.3377 4.2312H67.8527V5.81619H69.3851V5.81666ZM69.4703 8.63772C69.7794 8.63772 70.0142 8.57634 70.1751 8.45358C70.3361 8.33083 70.4161 8.11553 70.4161 7.80722C70.4161 7.49277 70.3323 7.26614 70.1652 7.12781C69.9981 6.98947 69.7505 6.92053 69.4225 6.92053H67.8522V8.63772H69.4698H69.4703ZM76.0547 9.87379C75.3484 9.87379 74.724 9.73404 74.1815 9.45406C73.639 9.17408 73.2195 8.77653 72.9232 8.26048C72.6268 7.7449 72.4787 7.13772 72.4787 6.43942C72.4787 5.74112 72.6268 5.13253 72.9232 4.61364C73.2195 4.09476 73.639 3.69532 74.1815 3.41534C74.724 3.13536 75.3484 2.99561 76.0547 2.99561C76.5337 2.99561 76.9579 3.04424 77.3271 3.14197C77.6959 3.2397 78.0349 3.39221 78.344 3.59948V4.96775C78.0666 4.74159 77.7494 4.57634 77.3934 4.47247C77.037 4.3686 76.6317 4.31666 76.1777 4.31666C75.755 4.31666 75.3754 4.40306 75.0378 4.57587C74.7003 4.74867 74.4338 4.99561 74.2383 5.31666C74.0428 5.63725 73.9448 6.01166 73.9448 6.43942C73.9448 6.87332 74.0347 7.25245 74.2146 7.57634C74.3945 7.90023 74.6482 8.15047 74.9763 8.32658C75.3043 8.50269 75.6826 8.59098 76.1115 8.59098C76.5025 8.59098 76.8429 8.52157 77.1331 8.38323V7.10939H76.0641V6.05273H78.5239V9.23262C77.8995 9.66038 77.0762 9.87426 76.0547 9.87426V9.87379ZM81.7874 3.13725H83.1967L85.8359 9.73215H84.3698L83.8022 8.29825H81.1815L80.6139 9.73215H79.1383L81.787 3.13725H81.7874ZM83.424 7.15661L82.4876 4.64669L81.5512 7.15661H83.4244H83.424ZM89.4971 9.87379C88.7908 9.87379 88.1664 9.73404 87.6239 9.45406C87.0814 9.17408 86.662 8.77653 86.3656 8.26048C86.0693 7.7449 85.9211 7.13772 85.9211 6.43942C85.9211 5.74112 86.0693 5.13253 86.3656 4.61364C86.662 4.09476 87.0814 3.69532 87.6239 3.41534C88.1664 3.13536 88.7908 2.99561 89.4971 2.99561C90.4117 2.99561 91.1748 3.20335 91.7864 3.61836V4.97719C91.509 4.74442 91.1918 4.57634 90.8358 4.47247C90.4794 4.3686 90.0742 4.31666 89.6202 4.31666C88.9328 4.31666 88.3889 4.50694 87.9884 4.88748C87.5879 5.26803 87.3877 5.7855 87.3877 6.43942C87.3877 7.09995 87.5893 7.62025 87.9931 8.0008C88.3969 8.38135 88.939 8.57162 89.6202 8.57162C90.0869 8.57162 90.4997 8.51638 90.8595 8.40637C91.2188 8.29636 91.553 8.11836 91.8622 7.87332V9.23215C91.2818 9.65991 90.4936 9.87379 89.4971 9.87379ZM92.6665 3.13725H94.1041V5.77889H96.9895V3.13725H98.4276V9.73215H96.9895V6.96775H94.1041V9.73215H92.6665V3.13725ZM101.871 3.13725H103.28L105.92 9.73215H104.453L103.886 8.29825H101.265L100.698 9.73215H99.222L101.871 3.13725H101.871ZM103.508 7.15661L102.571 4.64669L101.635 7.15661H103.508H103.508ZM33.2563 12.7024H34.7886L36.605 17.3917L38.4309 12.7024H39.9538L37.3147 19.2973H35.9054L33.2568 12.7024H33.2563ZM41.9312 12.7024H43.3405L45.9796 19.2973H44.5135L43.9459 17.8634H41.3252L40.7576 19.2973H39.2821L41.9307 12.7024H41.9312ZM43.5677 16.7218L42.6313 14.2118L41.695 16.7218H43.5682H43.5677ZM50.0854 12.7024H51.5046L53.5383 17.1179L55.5814 12.7024H56.9912V19.2973H55.6193V15.5518L53.8692 19.2973H53.2069L51.4662 15.5518V19.2973H50.0849V12.7024H50.0854ZM60.2074 12.7024H61.6167L64.2559 19.2973H62.7898L62.2222 17.8634H59.6015L59.0339 19.2973H57.5583L60.2069 12.7024H60.2074ZM61.8439 16.7218L60.9076 14.2118L59.9712 16.7218H61.8444H61.8439ZM65.0507 12.7024H66.4884V15.5707L68.986 12.7024H70.6982L67.8981 15.9196L70.8876 19.2973H69.1753L66.4888 16.2685V19.2973H65.0512V12.7024H65.0507ZM72.9308 13.9007H71.0007V12.7024H76.2985V13.9007H74.3685V19.2978H72.9308V13.9007ZM78.2095 12.7024H79.6188L82.258 19.2973H80.7919L80.2243 17.8634H77.6036L77.036 19.2973H75.5605L78.2091 12.7024H78.2095ZM79.8461 16.7218L78.9097 14.2118L77.9733 16.7218H79.8465H79.8461ZM83.0528 12.7024H86.2974C86.9218 12.7024 87.4104 12.8563 87.764 13.1646C88.1172 13.4729 88.2937 13.9196 88.2937 14.5046C88.2937 14.8001 88.2242 15.0693 88.0859 15.3115C87.9472 15.5537 87.7579 15.7406 87.5183 15.8728C87.8464 15.9923 88.0921 16.1731 88.2563 16.4153C88.4206 16.6576 88.5025 16.9734 88.5025 17.3634C88.5025 17.7595 88.4126 18.1042 88.2327 18.3965C88.0528 18.6892 87.8071 18.9125 87.4947 19.0664C87.1827 19.2203 86.8371 19.2978 86.4589 19.2978H83.0533V12.7029L83.0528 12.7024ZM86.0234 15.3818C86.2757 15.3818 86.4745 15.319 86.6194 15.193C86.7647 15.0674 86.8371 14.8658 86.8371 14.5891C86.8371 14.2874 86.7661 14.0796 86.6241 13.9663C86.4821 13.853 86.2662 13.7964 85.976 13.7964H84.491V15.3813H86.0234V15.3818ZM86.1086 18.2029C86.4177 18.2029 86.6525 18.1415 86.8134 18.0187C86.9744 17.896 87.0544 17.6807 87.0544 17.3724C87.0544 17.0579 86.9706 16.8313 86.8035 16.693C86.6364 16.5546 86.3888 16.4857 86.0607 16.4857H84.4905V18.2029H86.1081H86.1086ZM35.0249 23.4654H33.0948V22.2671H38.3926V23.4654H36.4626V28.8625H35.0249V23.4654ZM40.3037 22.2671H41.7129L44.3521 28.862H42.886L42.3184 27.4281H39.6977L39.1301 28.862H37.6546L40.3032 22.2671H40.3037ZM41.9402 26.2864L41.0038 23.7765L40.0674 26.2864H41.9406H41.9402ZM47.7487 22.2671H49.1864V27.6642H52.2137V28.8625H47.7487V22.2676V22.2671ZM52.8287 22.2671H54.2663V28.862H52.8287V22.2671ZM55.26 22.2671H56.6792L58.7129 26.6826L60.7561 22.2671H62.1658V28.862H60.7939V25.1165L59.0438 28.862H58.3815L56.6409 25.1165V28.862H55.2595V22.2671H55.26ZM63.159 22.2671H64.5967V28.862H63.159V22.2671ZM68.7119 22.2671H70.2443L72.0607 26.9564L73.8865 22.2671H75.4094L72.7703 28.862H71.361L68.7124 22.2671H68.7119ZM77.3868 22.2671H78.7961L81.4352 28.862H79.9691L79.4016 27.4281H76.7809L76.2133 28.862H74.7377L77.3863 22.2671H77.3868ZM79.0233 26.2864L78.0869 23.7765L77.1506 26.2864H79.0238H79.0233ZM81.8992 27.9092L85.1343 23.4654H81.9839V22.2671H86.9124V23.2293L83.6962 27.6637H87.1017V28.862H81.8987V27.9092H81.8992ZM87.9065 22.2671H89.3442V28.862H87.9065V22.2671ZM90.3378 22.2671H93.2042C93.9546 22.2671 94.5397 22.4541 94.9591 22.8285C95.3785 23.2029 95.5882 23.7421 95.5882 24.4465C95.5882 24.9371 95.4746 25.354 95.2479 25.6967C95.0206 26.0395 94.6992 26.2893 94.2831 26.447L95.5414 28.8625H94.0658L92.9022 26.6264H91.7765V28.8625H90.3388V22.2676L90.3378 22.2671ZM92.9491 25.4276C93.315 25.4276 93.6033 25.3492 93.8144 25.1915C94.0256 25.0343 94.1316 24.786 94.1316 24.446C94.1316 24.0877 94.0275 23.8341 93.8192 23.6863C93.6113 23.5386 93.3212 23.4644 92.9491 23.4644H91.776V25.4267H92.9491V25.4276ZM96.3925 22.2671H97.8302V27.6642H100.858V28.8625H96.3925V22.2676V22.2671ZM101.472 22.2671H102.91V28.862H101.472V22.2671ZM107.29 29.0036C106.584 29.0036 105.96 28.8639 105.417 28.5839C104.875 28.3039 104.455 27.9064 104.159 27.3903C103.863 26.8747 103.714 26.2676 103.714 25.5693C103.714 24.871 103.863 24.2624 104.159 23.7435C104.455 23.2246 104.875 22.8252 105.417 22.5452C105.96 22.2652 106.584 22.1254 107.29 22.1254C107.77 22.1254 108.194 22.1741 108.563 22.2718C108.932 22.3695 109.271 22.522 109.58 22.7293V24.0976C109.302 23.8714 108.985 23.7062 108.629 23.6023C108.273 23.4984 107.868 23.4465 107.414 23.4465C106.991 23.4465 106.611 23.5329 106.274 23.7057C105.936 23.8785 105.67 24.1254 105.474 24.4465C105.279 24.7671 105.181 25.1415 105.181 25.5693C105.181 26.0032 105.271 26.3823 105.45 26.7062C105.63 27.0301 105.884 27.2803 106.212 27.4564C106.54 27.6325 106.918 27.7208 107.347 27.7208C107.738 27.7208 108.079 27.6514 108.369 27.5131V26.2392H107.3V25.1826H109.76V28.3625C109.135 28.7902 108.312 29.0041 107.29 29.0041V29.0036ZM110.564 22.2671H112.001V28.862H110.564V22.2671ZM45.5716 22.1254H46.9435L46.177 23.9937H44.9566L45.5716 22.1254Z" fill="white"/>
</g>
<defs>
<clipPath id="clip0_347_1214">
<rect width="112" height="32" fill="white"/>
</clipPath>
</defs>
</svg>
