<svg width="112" height="32" viewBox="0 0 112 32" fill="none" xmlns="http://www.w3.org/2000/svg">
<path fill-rule="evenodd" clip-rule="evenodd" d="M24.2481 11.7653C24.2481 19.0292 17.8492 19.0099 13.5934 26.3928C13.5262 18.1477 19.5231 14.0165 19.7811 13.8465L18.6696 12.1765C18.4121 12.3503 13.2015 15.8999 11.8821 22.9565C11.2279 19.0571 11.3131 14.4584 13.5295 11.1978C16.0863 7.50609 21.6553 8.00184 24.2476 8.00184V11.7653H24.2481ZM24.2481 27.0373C20.3861 27.0373 17.9202 26.7351 14.7353 28.6067C16.6018 24.0429 21.9711 20.635 23.6554 18.9551C24.5018 17.9329 24.2481 16.254 24.2481 27.0368V27.0373ZM11.0083 27.8758C11.4059 29.2459 10.6646 27.0373 5.92213 27.0373H2.14872V8.00184C4.44278 8.00184 9.2567 7.55047 11.8353 10.1222C8.46282 14.6085 9.30925 22.2861 11.0083 27.8758ZM13.1982 1.99051C17.8805 1.99051 20.3989 6.00845 20.0259 6.00845C18.4301 6.08447 16.8693 6.43999 15.1575 7.33093C12.3352 9.21195 13.8756 8.69873 11.1091 7.25727C9.62074 6.51554 8.13855 6.08541 6.36806 6.00845C6.00119 6.00845 8.51774 1.99051 13.1986 1.99051H13.1982ZM22.4028 5.99807C18.8992 -2.00099 7.49568 -1.99768 3.99353 5.99807C-1.12999 5.99807 0.139176 3.38711 0.139176 28.0396C0.139176 29.3762 1.41165 29.041 5.92213 29.041C10.7275 29.041 11.6293 32 13.5068 32V31.9971C13.5532 31.9971 13.7487 31.88 13.7544 31.88C17.062 28.5812 20.619 29.041 25.2526 29.041C26.6846 29.041 26.2567 29.0236 26.2567 6.99996C26.2567 5.58494 24.2613 5.99807 22.4028 5.99807Z" fill="#00359E"/>
<path fill-rule="evenodd" clip-rule="evenodd" d="M33.447 3.13736H34.8662L36.8999 7.55284L38.9431 3.13736H40.3528V9.73226H38.9809V5.98674L37.2308 9.73226H36.5685L34.8279 5.98674V9.73226H33.4465V3.13736H33.447ZM43.5691 3.13736H44.9783L47.6175 9.73226H46.1514L45.5838 8.29836H42.9631L42.3955 9.73226H40.92L43.5686 3.13736H43.5691ZM45.2056 7.15671L44.2692 4.6468L43.3328 7.15671H45.206H45.2056ZM48.4123 3.13736H49.85V6.00563L52.3476 3.13736H54.0599L51.2598 6.35454L54.2492 9.73226H52.537L49.8505 6.70345V9.73226H48.4128V3.13736H48.4123ZM56.2924 4.33566H54.3624V3.13736H59.6601V4.33566H57.7301V9.73273H56.2924V4.33566ZM61.5712 3.13736H62.9805L65.6196 9.73226H64.1535L63.5859 8.29836H60.9652L60.3977 9.73226H58.9221L61.5707 3.13736H61.5712ZM63.2077 7.15671L62.2713 4.6468L61.335 7.15671H63.2082H63.2077ZM66.4145 3.13736H69.6591C70.2835 3.13736 70.772 3.29127 71.1257 3.59958C71.4788 3.90789 71.6554 4.35454 71.6554 4.93953C71.6554 5.23509 71.5858 5.50421 71.4476 5.74642C71.3089 5.98863 71.1195 6.1756 70.88 6.3078C71.208 6.42725 71.4537 6.60808 71.618 6.85029C71.7822 7.0925 71.8641 7.40837 71.8641 7.79836C71.8641 8.19448 71.7742 8.53915 71.5943 8.83141C71.4144 9.12414 71.1687 9.34746 70.8563 9.50138C70.5443 9.6553 70.1988 9.73273 69.8205 9.73273H66.4149V3.13783L66.4145 3.13736ZM69.385 5.81677C69.6373 5.81677 69.8361 5.75397 69.981 5.62791C70.1263 5.50232 70.1988 5.30072 70.1988 5.02404C70.1988 4.72234 70.1277 4.5146 69.9857 4.40128C69.8437 4.28797 69.6278 4.23131 69.3377 4.23131H67.8526V5.8163H69.385V5.81677ZM69.4702 8.63783C69.7793 8.63783 70.0141 8.57645 70.1751 8.45369C70.336 8.33093 70.416 8.11564 70.416 7.80733C70.416 7.49288 70.3323 7.26625 70.1651 7.12791C69.998 6.98957 69.7505 6.92064 69.4224 6.92064H67.8521V8.63783H69.4697H69.4702ZM76.0546 9.8739C75.3483 9.8739 74.7239 9.73415 74.1814 9.45416C73.6389 9.17418 73.2195 8.77664 72.9231 8.26058C72.6268 7.745 72.4786 7.13783 72.4786 6.43953C72.4786 5.74123 72.6268 5.13263 72.9231 4.61375C73.2195 4.09486 73.6389 3.69543 74.1814 3.41545C74.7239 3.13547 75.3483 2.99571 76.0546 2.99571C76.5337 2.99571 76.9578 3.04434 77.3271 3.14208C77.6959 3.23981 78.0348 3.39231 78.3439 3.59958V4.96786C78.0665 4.7417 77.7494 4.57645 77.3934 4.47258C77.0369 4.36871 76.6317 4.31677 76.1777 4.31677C75.755 4.31677 75.3753 4.40317 75.0378 4.57598C74.7002 4.74878 74.4337 4.99571 74.2382 5.31677C74.0427 5.63736 73.9447 6.01176 73.9447 6.43953C73.9447 6.87343 74.0346 7.25256 74.2145 7.57645C74.3944 7.90034 74.6482 8.15058 74.9762 8.32668C75.3043 8.50279 75.6825 8.59108 76.1114 8.59108C76.5024 8.59108 76.8428 8.52168 77.133 8.38334V7.1095H76.0641V6.05284H78.5238V9.23273C77.8994 9.66049 77.0762 9.87437 76.0546 9.87437V9.8739ZM81.7874 3.13736H83.1967L85.8358 9.73226H84.3697L83.8021 8.29836H81.1814L80.6138 9.73226H79.1383L81.7869 3.13736H81.7874ZM83.4239 7.15671L82.4875 4.6468L81.5512 7.15671H83.4244H83.4239ZM89.497 9.8739C88.7907 9.8739 88.1663 9.73415 87.6238 9.45416C87.0813 9.17418 86.6619 8.77664 86.3656 8.26058C86.0692 7.745 85.921 7.13783 85.921 6.43953C85.921 5.74123 86.0692 5.13263 86.3656 4.61375C86.6619 4.09486 87.0813 3.69543 87.6238 3.41545C88.1663 3.13547 88.7907 2.99571 89.497 2.99571C90.4116 2.99571 91.1747 3.20346 91.7864 3.61847V4.9773C91.509 4.74453 91.1918 4.57645 90.8358 4.47258C90.4793 4.36871 90.0741 4.31677 89.6201 4.31677C88.9328 4.31677 88.3888 4.50704 87.9883 4.88759C87.5879 5.26814 87.3876 5.78561 87.3876 6.43953C87.3876 7.10006 87.5893 7.62036 87.9931 8.00091C88.3969 8.38145 88.9389 8.57173 89.6201 8.57173C90.0869 8.57173 90.4997 8.51649 90.8595 8.40648C91.2188 8.29647 91.553 8.11847 91.8621 7.87343V9.23226C91.2817 9.66002 90.4935 9.8739 89.497 9.8739ZM92.6664 3.13736H94.1041V5.779H96.9894V3.13736H98.4276V9.73226H96.9894V6.96786H94.1041V9.73226H92.6664V3.13736ZM101.871 3.13736H103.28L105.919 9.73226H104.453L103.886 8.29836H101.265L100.697 9.73226H99.2219L101.871 3.13736H101.871ZM103.508 7.15671L102.571 4.6468L101.635 7.15671H103.508H103.508ZM33.2562 12.7025H34.7886L36.605 17.3918L38.4309 12.7025H39.9538L37.3146 19.2974H35.9053L33.2567 12.7025H33.2562ZM41.9311 12.7025H43.3404L45.9796 19.2974H44.5135L43.9459 17.8635H41.3252L40.7576 19.2974H39.282L41.9306 12.7025H41.9311ZM43.5676 16.7219L42.6313 14.212L41.6949 16.7219H43.5681H43.5676ZM50.0853 12.7025H51.5045L53.5382 17.118L55.5814 12.7025H56.9911V19.2974H55.6192V15.5519L53.8691 19.2974H53.2068L51.4662 15.5519V19.2974H50.0848V12.7025H50.0853ZM60.2073 12.7025H61.6166L64.2558 19.2974H62.7897L62.2221 17.8635H59.6014L59.0338 19.2974H57.5583L60.2069 12.7025H60.2073ZM61.8439 16.7219L60.9075 14.212L59.9711 16.7219H61.8443H61.8439ZM65.0506 12.7025H66.4883V15.5708L68.9859 12.7025H70.6982L67.8981 15.9197L70.8875 19.2974H69.1753L66.4888 16.2686V19.2974H65.0511V12.7025H65.0506ZM72.9307 13.9008H71.0007V12.7025H76.2984V13.9008H74.3684V19.2979H72.9307V13.9008ZM78.2095 12.7025H79.6188L82.2579 19.2974H80.7918L80.2242 17.8635H77.6035L77.0359 19.2974H75.5604L78.209 12.7025H78.2095ZM79.846 16.7219L78.9096 14.212L77.9733 16.7219H79.8465H79.846ZM83.0528 12.7025H86.2974C86.9218 12.7025 87.4103 12.8564 87.764 13.1647C88.1171 13.473 88.2937 13.9197 88.2937 14.5047C88.2937 14.8002 88.2241 15.0694 88.0859 15.3116C87.9472 15.5538 87.7578 15.7408 87.5183 15.873C87.8463 15.9924 88.092 16.1732 88.2563 16.4154C88.4205 16.6577 88.5024 16.9735 88.5024 17.3635C88.5024 17.7596 88.4125 18.1043 88.2326 18.3966C88.0527 18.6893 87.807 18.9126 87.4946 19.0665C87.1826 19.2205 86.8371 19.2979 86.4588 19.2979H83.0532V12.703L83.0528 12.7025ZM86.0233 15.3819C86.2756 15.3819 86.4744 15.3191 86.6193 15.1931C86.7646 15.0675 86.8371 14.8659 86.8371 14.5892C86.8371 14.2875 86.766 14.0798 86.624 13.9664C86.482 13.8531 86.2661 13.7965 85.976 13.7965H84.4909V15.3815H86.0233V15.3819ZM86.1085 18.203C86.4176 18.203 86.6524 18.1416 86.8134 18.0188C86.9743 17.8961 87.0543 17.6808 87.0543 17.3725C87.0543 17.058 86.9706 16.8314 86.8034 16.6931C86.6363 16.5547 86.3887 16.4858 86.0607 16.4858H84.4905V18.203H86.108H86.1085ZM35.0248 23.4655H33.0948V22.2672H38.3925V23.4655H36.4625V28.8626H35.0248V23.4655ZM40.3036 22.2672H41.7129L44.352 28.8621H42.8859L42.3184 27.4282H39.6977L39.1301 28.8621H37.6545L40.3031 22.2672H40.3036ZM41.9401 26.2866L41.0037 23.7766L40.0674 26.2866H41.9406H41.9401ZM47.7486 22.2672H49.1863V27.6643H52.2137V28.8626H47.7486V22.2677V22.2672ZM52.8286 22.2672H54.2663V28.8621H52.8286V22.2672ZM55.2599 22.2672H56.6792L58.7129 26.6827L60.756 22.2672H62.1658V28.8621H60.7939V25.1166L59.0438 28.8621H58.3815L56.6408 25.1166V28.8621H55.2595V22.2672H55.2599ZM63.1589 22.2672H64.5966V28.8621H63.1589V22.2672ZM68.7118 22.2672H70.2442L72.0606 26.9565L73.8865 22.2672H75.4094L72.7702 28.8621H71.3609L68.7123 22.2672H68.7118ZM77.3867 22.2672H78.796L81.4352 28.8621H79.9691L79.4015 27.4282H76.7808L76.2132 28.8621H74.7376L77.3863 22.2672H77.3867ZM79.0233 26.2866L78.0869 23.7766L77.1505 26.2866H79.0237H79.0233ZM81.8991 27.9093L85.1343 23.4655H81.9838V22.2672H86.9123V23.2294L83.6961 27.6638H87.1017V28.8621H81.8986V27.9093H81.8991ZM87.9064 22.2672H89.3441V28.8621H87.9064V22.2672ZM90.3378 22.2672H93.2042C93.9545 22.2672 94.5396 22.4542 94.959 22.8286C95.3785 23.203 95.5882 23.7422 95.5882 24.4466C95.5882 24.9372 95.4746 25.3541 95.2478 25.6968C95.0206 26.0396 94.6991 26.2894 94.283 26.4471L95.5413 28.8626H94.0657L92.9021 26.6265H91.7764V28.8626H90.3387V22.2677L90.3378 22.2672ZM92.949 25.4277C93.3149 25.4277 93.6032 25.3493 93.8144 25.1917C94.0255 25.0344 94.1315 24.7861 94.1315 24.4461C94.1315 24.0878 94.0274 23.8342 93.8191 23.6865C93.6113 23.5387 93.3211 23.4646 92.949 23.4646H91.7759V25.4268H92.949V25.4277ZM96.3925 22.2672H97.8302V27.6643H100.857V28.8626H96.3925V22.2677V22.2672ZM101.472 22.2672H102.91V28.8621H101.472V22.2672ZM107.29 29.0037C106.584 29.0037 105.96 28.864 105.417 28.584C104.875 28.304 104.455 27.9065 104.159 27.3904C103.863 26.8748 103.714 26.2677 103.714 25.5694C103.714 24.8711 103.863 24.2625 104.159 23.7436C104.455 23.2247 104.875 22.8253 105.417 22.5453C105.96 22.2653 106.584 22.1256 107.29 22.1256C107.769 22.1256 108.194 22.1742 108.563 22.2719C108.932 22.3696 109.271 22.5222 109.58 22.7294V24.0977C109.302 23.8715 108.985 23.7063 108.629 23.6024C108.273 23.4985 107.867 23.4466 107.413 23.4466C106.991 23.4466 106.611 23.533 106.274 23.7058C105.936 23.8786 105.67 24.1256 105.474 24.4466C105.279 24.7672 105.181 25.1416 105.181 25.5694C105.181 26.0033 105.27 26.3824 105.45 26.7063C105.63 27.0302 105.884 27.2804 106.212 27.4565C106.54 27.6326 106.918 27.7209 107.347 27.7209C107.738 27.7209 108.079 27.6515 108.369 27.5132V26.2393H107.3V25.1827H109.76V28.3626C109.135 28.7903 108.312 29.0042 107.29 29.0042V29.0037ZM110.563 22.2672H112.001V28.8621H110.563V22.2672ZM45.5715 22.1256H46.9434L46.177 23.9938H44.9566L45.5715 22.1256Z" fill="#00359E"/>
</svg>
