<svg width="20" height="20" viewBox="0 0 20 20" fill="none" xmlns="http://www.w3.org/2000/svg">
<g clip-path="url(#clip0_239_3836)">
<path d="M0.472432 6.95658C0.166104 7.91627 0.000205085 8.93865 0.000244148 9.99994C0.000205085 11.0613 0.166143 12.0837 0.472471 13.0434L10.0002 13.4783L19.528 13.0435C19.8343 12.0838 20.0003 11.0613 20.0003 10C20.0003 8.93869 19.8344 7.91627 19.528 6.95654L10.0002 6.52177L0.472432 6.95658Z" fill="#F0F0F0"/>
<path d="M19.5276 6.95654L9.99981 6.52177L0.472002 6.95654C0.381221 7.24107 0.303057 7.53119 0.237549 7.82611H19.7619C19.6965 7.53115 19.6184 7.24099 19.5276 6.95654Z" fill="#D80027"/>
<path d="M0.237427 12.1742C0.302856 12.4691 0.381021 12.7592 0.471802 13.0437L0.472739 13.0438L9.99954 13.4785L19.5273 13.0438C19.6181 12.7592 19.6963 12.4691 19.7617 12.1742H0.237427Z" fill="#D80027"/>
<path d="M10.0003 20.0006C14.4618 20.0006 18.2403 17.0786 19.528 13.0441H0.472534C1.76023 17.0786 5.53882 20.0006 10.0003 20.0006Z" fill="#6DA544"/>
<path d="M10.0001 -0.000686645C5.53858 -0.000647583 1.76006 2.92134 0.47229 6.95584L19.5278 6.95588C18.2402 2.92131 14.4616 -0.000725708 10.0001 -0.000686645Z" fill="#338AF3"/>
<path d="M4.56959 4.1303C4.56959 3.1937 5.22784 2.41127 6.10686 2.21932C5.97178 2.18979 5.83158 2.17381 5.6876 2.17381C4.60705 2.17381 3.73108 3.04975 3.73108 4.13034C3.73108 5.21092 4.60698 6.08686 5.6876 6.08686C5.83158 6.08686 5.97174 6.07085 6.10686 6.04135C5.22787 5.84932 4.56959 5.0669 4.56959 4.1303Z" fill="#F0F0F0"/>
<path d="M7.26288 5.01871L7.3953 5.42633H7.8239L7.47718 5.67828L7.6096 6.0859L7.26288 5.83398L6.91608 6.0859L7.04854 5.67828L6.70178 5.42633H7.13038L7.26288 5.01871Z" fill="#F0F0F0"/>
<path d="M8.63133 5.01871L8.76379 5.42633H9.19238L8.84562 5.67828L8.97809 6.0859L8.63133 5.83398L8.28457 6.0859L8.41703 5.67828L8.07031 5.42633H8.49887L8.63133 5.01871Z" fill="#F0F0F0"/>
<path d="M9.99896 5.01871L10.1314 5.42633H10.56L10.2133 5.67828L10.3457 6.0859L9.99896 5.83398L9.65216 6.0859L9.78466 5.67828L9.43787 5.42633H9.8665L9.99896 5.01871Z" fill="#F0F0F0"/>
<path d="M11.3675 5.01871L11.4999 5.42633H11.9285L11.5818 5.67828L11.7142 6.0859L11.3675 5.83398L11.0207 6.0859L11.1532 5.67828L10.8064 5.42633H11.235L11.3675 5.01871Z" fill="#F0F0F0"/>
<path d="M12.7352 5.01871L12.8677 5.42633H13.2963L12.9495 5.67828L13.082 6.0859L12.7352 5.83398L12.3885 6.0859L12.5209 5.67828L12.1742 5.42633H12.6027L12.7352 5.01871Z" fill="#F0F0F0"/>
<path d="M8.63133 3.59598L8.76379 4.00356H9.19238L8.84562 4.25555L8.97809 4.66313L8.63133 4.41121L8.28457 4.66313L8.41703 4.25555L8.07031 4.00356H8.49887L8.63133 3.59598Z" fill="#F0F0F0"/>
<path d="M9.99896 3.59598L10.1314 4.00356H10.56L10.2133 4.25555L10.3457 4.66313L9.99896 4.41121L9.65216 4.66313L9.78466 4.25555L9.43787 4.00356H9.8665L9.99896 3.59598Z" fill="#F0F0F0"/>
<path d="M11.3675 3.59598L11.4999 4.00356H11.9285L11.5818 4.25555L11.7142 4.66313L11.3675 4.41121L11.0207 4.66313L11.1532 4.25555L10.8064 4.00356H11.235L11.3675 3.59598Z" fill="#F0F0F0"/>
<path d="M12.7352 3.59598L12.8677 4.00356H13.2963L12.9495 4.25555L13.082 4.66313L12.7352 4.41121L12.3885 4.66313L12.5209 4.25555L12.1742 4.00356H12.6027L12.7352 3.59598Z" fill="#F0F0F0"/>
<path d="M9.99896 2.1734L10.1314 2.58106H10.56L10.2133 2.83297L10.3457 3.24063L9.99896 2.98871L9.65216 3.24063L9.78466 2.83297L9.43787 2.58106H9.8665L9.99896 2.1734Z" fill="#F0F0F0"/>
<path d="M11.3675 2.1734L11.4999 2.58106H11.9285L11.5818 2.83297L11.7142 3.24063L11.3675 2.98871L11.0207 3.24063L11.1532 2.83297L10.8064 2.58106H11.235L11.3675 2.1734Z" fill="#F0F0F0"/>
<path d="M12.7352 2.1734L12.8677 2.58106H13.2963L12.9495 2.83297L13.082 3.24063L12.7352 2.98871L12.3885 3.24063L12.5209 2.83297L12.1742 2.58106H12.6027L12.7352 2.1734Z" fill="#F0F0F0"/>
</g>
<defs>
<clipPath id="clip0_239_3836">
<rect width="20" height="20" fill="white"/>
</clipPath>
</defs>
</svg>
